<svg id="Layer_2" data-name="Layer 2" xmlns="http://www.w3.org/2000/svg" viewBox="0 0 923.74 602.17"><defs><style>.cls-1{fill:#fff;}.cls-2{fill:#eaeaea;}.cls-3{fill:#e3f1fb;}.cls-4{fill:#c4e1f7;}.cls-5{fill:#3f3f3f;}.cls-6{fill:#ccc;}.cls-7,.cls-8{fill:#f4f4f4;}.cls-7{opacity:0.3;}.cls-9{fill:#1485e0;}.cls-10{fill:#bfbfbf;}.cls-11{fill:#020202;}</style></defs><title>Collaborative Data Science</title><rect class="cls-1" x="516.86" y="136.78" width="154.81" height="201.39"/><polygon class="cls-2" points="90.03 297.94 208.64 416.56 216.02 418.12 219.95 417.24 227.91 410.93 411.63 227.22 413.06 218.74 409.58 211.62 292.96 95 90.03 297.94"/><polygon class="cls-2" points="78.88 290.55 287.9 81.46 290.82 81.68 295.05 83.61 296.94 88.84 295.02 92.95 89.2 298.77 85.09 301.74 79.11 300 77.11 295.51 78.88 290.55"/><rect class="cls-3" x="750.3" y="450.8" width="208.35" height="30.81" transform="translate(-38.43 881.3) rotate(-63.13)"/><polygon class="cls-4" points="399.68 408.51 396.11 431.76 393.93 453.42 393.61 517.12 449.61 518.04 448.11 431.78 444.72 408.51 399.68 408.51"/><rect class="cls-4" x="401.11" y="518.51" width="41" height="29"/><polygon class="cls-3" points="416.34 455.15 415.61 468.25 415.08 537.24 426.96 538.36 427.61 460.63 425.31 453.29 421.35 452.01 416.34 455.15"/><polygon class="cls-3" points="366.13 347.95 363.84 351.36 364.83 356.76 386.01 393.88 411.36 368.52 376.48 347.95 370.26 345.97 366.13 347.95"/><polygon class="cls-3" points="394.11 452.51 394.11 517.51 370.44 531.51 364.11 531.51 362.61 526.08 364.55 501.54 369.15 486.35 373.38 477.26 382.83 463.01 394.11 452.51"/><polygon class="cls-3" points="449.11 452.51 449.11 517.51 473.29 531.51 479.61 531.51 481.11 526.08 479.17 501.54 474.57 486.35 470.35 477.26 460.64 463.01 449.11 452.51"/><path class="cls-3" d="M502,684v3.5A10.5,10.5,0,0,0,512.5,698h0A10.5,10.5,0,0,0,523,687.5V684" transform="translate(-90.89 -136.49)"/><polygon class="cls-2" points="555.95 477.26 584.75 419.95 588.01 417.38 594.27 415.27 601.06 410.93 606.78 402.65 608.02 389.86 604.02 377.41 602.04 376.17 595.03 388.36 594.94 390.16 596.36 393.88 597.31 396.54 594.27 403.23 589.02 406.59 581.98 406.43 574.57 401.83 571.05 398.2 571.19 393.88 573.28 388.79 575.84 384.22 578.73 383.9 581.98 383.75 587.01 374.84 588.95 369.89 586.63 368.67 579.69 370.9 570.65 375.06 565.51 378.8 560.88 388.03 560.41 395.36 564.2 407.42 533.57 470.04 520.27 475.54 514.5 481.59 510.88 492.11 513.9 506.96 516.86 512.9 521.63 506.99 523.75 498.48 521.39 492.11 523.75 486.18 528.01 481.45 534.88 481.35 540.07 482.82 545.12 486.92 547.81 492.04 546.85 497.6 544.08 503.11 539.44 503.98 535.64 506.55 530.93 515.9 531.32 518.51 534.65 518.87 549.11 512.73 555.44 505.01 557.77 496.75 556.47 485.47 554.5 479.56 555.95 477.26"/><rect class="cls-5" x="382.58" y="1.63" width="58.94" height="120.29" rx="8.7" ry="8.7"/><polyline class="cls-6" points="97.61 305.53 300.55 102.59 292.96 95 90.03 297.94 96.6 304.52"/><path class="cls-6" d="M653,387.76l-0.26,28.32L673,395.61S664.61,387.19,653,387.76Z" transform="translate(-90.89 -136.49)"/><path class="cls-2" d="M625,416h28V388S625.43,389,625,416Z" transform="translate(-90.89 -136.49)"/><polygon class="cls-4" points="723.57 426.22 818.03 240.52 824.41 243.75 730.26 429.61 723.57 426.22"/><polygon class="cls-3" points="396.11 431.51 448.11 431.51 444.72 408.51 400.11 408.51 396.11 431.51"/><path class="cls-4" d="M457,484.44l33.26,33.26,12.34-12.34S460.34,476.32,457,484.44Z" transform="translate(-90.89 -136.49)"/><polyline class="cls-6" points="540.2 482.89 579.02 405.31 581.98 406.43 591.04 406.02 597.7 396.42 596.51 392.83 594.94 390.16 600.65 377.18 604.02 377.41 606.43 384.48 608.43 396.08 606 404.4 601.06 410.93 592.7 415.85 585.65 418.15 554.5 479.56 556.69 487.51 557.47 498.96 553.72 507.11 549.11 512.73 540.2 517.08 532.6 519.53 530.4 516.96 537.59 505.89 539.44 503.98 541.99 504.56 545.27 500.73 547.81 492.04 545.12 486.92 540.2 482.89"/><polyline class="cls-7" points="382.86 63.77 441.11 5.77 441.11 23.51 382.04 82.59"/><polyline class="cls-7" points="382.32 92.36 442.11 32.55 442.11 42.51 381.64 102.98"/><rect class="cls-8" x="224.04" y="415.54" width="14.28" height="14.28" transform="translate(-322.05 150.78) rotate(-45)"/><path class="cls-9" d="M486,581h54a1.5,1.5,0,0,0,0-3H486a1.5,1.5,0,0,0,0,3h0Z" transform="translate(-90.89 -136.49)"/><rect class="cls-10" x="407.61" y="121.92" width="10" height="10.09"/><polyline class="cls-10" points="125.07 332.59 116.11 341.85 116.11 346.51 122.61 353.27 128.23 352.25 136.89 344.81"/><rect class="cls-4" x="122.84" y="484.44" width="15.55" height="15.55" transform="translate(295.42 -84.68) rotate(45)"/><rect class="cls-2" x="948.98" y="256.53" width="15.55" height="15.55" transform="translate(2.45 617.45) rotate(-45)"/><rect class="cls-2" x="269.94" y="600.34" width="15.55" height="15.55" transform="translate(-439.54 238) rotate(-45)"/><rect class="cls-4" x="586.23" y="219.08" width="15.55" height="15.55" rx="7.77" ry="7.77" transform="translate(243.5 -490.07) rotate(45)"/><polyline class="cls-4" points="393.11 492.51 367.11 492.51 362.61 508.51 393.11 508.51"/><polyline class="cls-4" points="449.11 492.51 476.11 492.51 479.86 508.51 450.11 508.51"/><path class="cls-11" d="M499.41,364.39L454,409.81l-86.53,86.53c-17.64,17.64-34.81,36-53,53-10,9.36-18-1.53-24.76-8.26l-36.45-36.45-43.3-43.3c-8.75-8.75-17.13-18.56-26.57-26.57-0.5-.42-0.93-0.93-1.39-1.39v2.12L250.44,367,359.68,257.79l25.23-25.23h-2.12L488,337.75c6.66,6.66,20.52,16.41,11.41,26.63-1.28,1.44.83,3.57,2.12,2.12,5.25-5.89,5.23-13.89-.2-19.66-1.7-1.81-3.52-3.52-5.28-5.28l-25.91-25.91-68.56-68.56-16.66-16.66a1.52,1.52,0,0,0-2.12,0L314.33,298.9,205.08,408.14l-25.23,25.23a1.52,1.52,0,0,0,0,2.12l61.83,61.83,40.6,40.6,11.59,11.59c3.65,3.65,7.33,6.86,13,6.58,7.75-.37,13.82-8.76,18.9-13.83l31-31,87.82-87.82,36.83-36.83c6.37-6.37,13.13-12.52,19.18-19.18,0.28-.31.6-0.6,0.89-0.89A1.5,1.5,0,0,0,499.41,364.39Z" transform="translate(-90.89 -136.49)"/><path class="cls-11" d="M384.84,228.38l-71.53,71.53L201.17,412.05l-16.24,16.24c-2.27,2.27-4.47,5.1-7,7-5.79,4.37-11.11-2.28-6.93-7.5a38.69,38.69,0,0,1,2.94-2.94L187,411.81,295.15,303.65l53.75-53.75c9.23-9.23,18.08-19.34,27.92-27.92,0.24-.21.43-0.49,0.69-0.69,5.18-3.94,11.8,1.62,7.33,7.1-1.21,1.48.9,3.62,2.12,2.12,4.64-5.68,1.11-15-7-13.71-2.28.36-3.81,1.66-5.37,3.15C371,223.41,367.53,227,364,230.57l-46.82,46.82L196.94,397.62C187.6,407,177.81,416,168.85,425.71c-7.32,7.92,2.91,18.93,11.19,11.72,2.73-2.37,5.18-5.18,7.73-7.73L293.66,323.8l91.73-91.73L387,230.5A1.5,1.5,0,0,0,384.84,228.38Z" transform="translate(-90.89 -136.49)"/><path class="cls-11" d="M394.56,373.1l-66.7,66.7c-1.42,1.42-2.87,3.4-4.54,4.54-3.54,2.42-6.06-.46-8.57-3-5-5,1.35-8.86,4.81-12.32l40.25-40.25,20.08-20.08c1.4-1.4,2.94-3.61,4.64-4.64a5.07,5.07,0,0,1,5.14.13c2.4,1.51,6.84,6.19,4.67,9.2-1.13,1.57,1.47,3.07,2.59,1.51,3.71-5.14-1.11-8.91-4.62-12.32-2.9-2.82-6.09-3.89-9.5-1-4.31,3.61-8.11,8.11-12.08,12.08l-47.65,47.65c-4,4-8.39,7.78-12.05,12.05-2.77,3.24-1.94,6.35.72,9.25,2.81,3.06,6.77,8.15,11.48,5.72,4.17-2.15,7.78-7.4,11-10.63l22.56-22.56,39.9-39.9A1.5,1.5,0,0,0,394.56,373.1Z" transform="translate(-90.89 -136.49)"/><path class="cls-11" d="M413.31,354.35c-2.27,2.27-6,7.76-9.53,5.22a27.35,27.35,0,0,1-3.07-3.07c-1.8-1.8-4.19-3.63-2.15-6.46a25.9,25.9,0,0,1,2.84-2.84c1.62-1.62,3.09-3.7,5.61-2.83,1.63,0.57,2.72,2.09,3.92,3.29,1.76,1.76,4.64,3.93,2.38,6.69-1.21,1.48.9,3.62,2.12,2.12,4.39-5.37-1.17-10.3-5.22-13.77-5.26-4.51-10.39,1.27-13.77,5.22-4.54,5.3,1.26,10.38,5.22,13.77,5.5,4.71,10.08-1.52,13.77-5.22A1.5,1.5,0,0,0,413.31,354.35Z" transform="translate(-90.89 -136.49)"/><path class="cls-11" d="M431.87,335.79L428.64,339c-1,1-2.38,3.05-3.7,3.7-2.57,1.27-4.61-2-6.09-3.44s-3.44-2.67-3.44-4.77,2-3.3,3.44-4.77,2.67-3.44,4.77-3.44,3.31,2,4.77,3.44,5.08,3.82,3.26,6.34c-1.13,1.57,1.47,3.07,2.59,1.51,2.27-3.15.59-5.66-1.74-8-1.86-1.86-3.66-4.17-5.78-5.71-2.86-2.08-5.37-.88-7.58,1.33a76.13,76.13,0,0,0-6,6c-2.25,2.84-1,5.48,1.21,7.73,1.94,1.94,3.79,4.15,5.89,5.89,5.23,4.34,10.48-3.7,13.77-7A1.5,1.5,0,0,0,431.87,335.79Z" transform="translate(-90.89 -136.49)"/><path class="cls-11" d="M449.71,318l-3.23,3.23c-1,1-2.38,3.05-3.7,3.7-2.57,1.27-4.61-2-6.09-3.44s-3.44-2.67-3.44-4.77,2-3.3,3.44-4.77,2.67-3.44,4.77-3.44,3.31,2,4.77,3.44,5.08,3.82,3.26,6.34c-1.13,1.57,1.47,3.07,2.59,1.51,2.27-3.15.59-5.66-1.74-8-1.86-1.86-3.66-4.17-5.78-5.71-2.86-2.08-5.37-.88-7.58,1.33a76.13,76.13,0,0,0-6,6c-2.25,2.84-1,5.48,1.21,7.73,1.94,1.94,3.79,4.15,5.89,5.89,5.23,4.34,10.48-3.7,13.77-7A1.5,1.5,0,0,0,449.71,318Z" transform="translate(-90.89 -136.49)"/><path class="cls-11" d="M274,493.66L270.67,497c-1,1-3.07,3.92-4.77,3.92s-3.73-2.88-4.77-3.92c-1.37-1.37-4.34-3.4-3.6-5.51,0.58-1.65,2.64-3.07,3.84-4.27s3.2-4.08,5.26-3.35c1.66,0.59,3,2.63,4.27,3.84,1.68,1.68,4.81,3.69,2.84,6.27-1.17,1.53,1.43,3,2.59,1.51,2.19-2.87,1-5.6-1.27-7.87-1.91-1.91-3.74-4.22-5.91-5.84-2.89-2.16-5.59-1-7.87,1.27a75.87,75.87,0,0,0-5.72,5.76c-4,5,3.19,10.63,6.76,13.62,5.3,4.44,10.39-3.26,13.77-6.64A1.5,1.5,0,0,0,274,493.66Z" transform="translate(-90.89 -136.49)"/><path class="cls-11" d="M291.67,476l-3.32,3.32c-1,1-3.07,3.92-4.77,3.92s-3.73-2.88-4.77-3.92c-1.37-1.37-4.34-3.4-3.6-5.51,0.58-1.65,2.64-3.07,3.84-4.27s3.2-4.08,5.26-3.35c1.66,0.59,3,2.63,4.27,3.84,1.68,1.68,4.81,3.69,2.84,6.27-1.17,1.53,1.43,3,2.59,1.51,2.19-2.87,1-5.6-1.27-7.87-1.91-1.91-3.74-4.22-5.91-5.84-2.89-2.16-5.59-1-7.87,1.27a75.87,75.87,0,0,0-5.72,5.76c-4,5,3.19,10.63,6.76,13.62,5.3,4.44,10.39-3.26,13.77-6.64A1.5,1.5,0,0,0,291.67,476Z" transform="translate(-90.89 -136.49)"/><path class="cls-11" d="M309.51,458.15l-3.32,3.32c-1,1-3.07,3.92-4.77,3.92s-3.73-2.88-4.77-3.92c-1.37-1.37-4.34-3.4-3.6-5.51,0.58-1.65,2.64-3.07,3.84-4.27s3.2-4.08,5.26-3.35c1.66,0.59,3,2.63,4.27,3.84,1.68,1.68,4.81,3.69,2.84,6.27-1.17,1.53,1.43,3,2.59,1.51,2.19-2.87,1-5.6-1.27-7.87-1.91-1.91-3.74-4.22-5.91-5.84-2.89-2.16-5.59-1-7.87,1.27a75.87,75.87,0,0,0-5.72,5.76c-4,5,3.19,10.63,6.76,13.62,5.3,4.44,10.39-3.26,13.77-6.64A1.5,1.5,0,0,0,309.51,458.15Z" transform="translate(-90.89 -136.49)"/><path class="cls-11" d="M256.54,476.1l-3.32,3.32c-1,1-3.07,3.92-4.77,3.92s-3.73-2.88-4.77-3.92c-1.37-1.37-4.34-3.4-3.6-5.51,0.58-1.65,2.64-3.07,3.84-4.27s3.2-4.08,5.26-3.35c1.66,0.59,3,2.63,4.27,3.84,1.68,1.68,4.81,3.69,2.84,6.27-1.17,1.53,1.43,3,2.59,1.51,2.19-2.87,1-5.6-1.27-7.87-1.91-1.91-3.74-4.22-5.91-5.84-2.89-2.16-5.59-1-7.87,1.27a75.87,75.87,0,0,0-5.72,5.76c-4,5,3.19,10.63,6.76,13.62,5.3,4.44,10.39-3.26,13.77-6.64A1.5,1.5,0,0,0,256.54,476.1Z" transform="translate(-90.89 -136.49)"/><path class="cls-11" d="M274.21,458.43l-3.32,3.32c-1,1-3.07,3.92-4.77,3.92s-3.73-2.88-4.77-3.92c-1.37-1.37-4.34-3.4-3.6-5.51,0.58-1.65,2.64-3.07,3.84-4.27s3.2-4.08,5.26-3.35c1.66,0.59,3,2.63,4.27,3.84,1.68,1.68,4.81,3.69,2.84,6.27-1.17,1.53,1.43,3,2.59,1.51,2.19-2.87,1-5.6-1.27-7.87-1.91-1.91-3.74-4.22-5.91-5.84-2.89-2.16-5.59-1-7.87,1.27a75.87,75.87,0,0,0-5.72,5.76c-4,5,3.19,10.63,6.76,13.62,5.3,4.44,10.39-3.26,13.77-6.64A1.5,1.5,0,0,0,274.21,458.43Z" transform="translate(-90.89 -136.49)"/><path class="cls-11" d="M291.35,441.3L288,444.62c-1,1-3.07,3.92-4.77,3.92s-3.73-2.88-4.77-3.92c-1.37-1.37-4.34-3.4-3.6-5.51,0.58-1.65,2.64-3.07,3.84-4.27s3.2-4.08,5.26-3.35c1.66,0.59,3,2.63,4.27,3.84,1.68,1.68,4.81,3.69,2.84,6.27-1.17,1.53,1.43,3,2.59,1.51,2.19-2.87,1-5.6-1.27-7.87-1.91-1.91-3.74-4.22-5.91-5.84-2.89-2.16-5.59-1-7.87,1.27a75.87,75.87,0,0,0-5.72,5.76c-4,5,3.19,10.63,6.76,13.62,5.3,4.44,10.39-3.26,13.77-6.64A1.5,1.5,0,0,0,291.35,441.3Z" transform="translate(-90.89 -136.49)"/><path class="cls-11" d="M308.38,424.26c-2.24,2.24-6,7.84-9.53,5.36a27.46,27.46,0,0,1-3.15-3.15c-1.78-1.78-4.2-3.58-2.21-6.38,1.58-2.23,5.69-6.76,8.49-5.79,1.64,0.57,2.76,2.15,4,3.35,1.73,1.73,4.66,3.9,2.44,6.62-1.21,1.48.9,3.62,2.12,2.12,4.38-5.36-1.33-10.34-5.36-13.77-5.26-4.49-10.42,1.43-13.77,5.36-4.52,5.29,1.42,10.41,5.36,13.77,5.5,4.69,10.1-1.68,13.77-5.36A1.5,1.5,0,0,0,308.38,424.26Z" transform="translate(-90.89 -136.49)"/><path class="cls-11" d="M343,389.62c-2.3,2.3-5.92,7.67-9.53,5.08a27.23,27.23,0,0,1-3-3c-1.82-1.82-4.18-3.68-2.09-6.55a26,26,0,0,1,2.76-2.76c1.65-1.65,3.09-3.67,5.66-2.78,1.62,0.56,2.68,2,3.88,3.22,1.79,1.79,4.61,4,2.31,6.77-1.21,1.48.9,3.62,2.12,2.12,4.4-5.39-1-10.27-5.08-13.77-5.27-4.54-10.36,1.12-13.77,5.08-4.56,5.3,1.11,10.36,5.08,13.77,5.5,4.73,10.06-1.36,13.77-5.08A1.5,1.5,0,0,0,343,389.62Z" transform="translate(-90.89 -136.49)"/><path class="cls-11" d="M360.7,371.94c-2.3,2.3-5.92,7.67-9.53,5.08a27.23,27.23,0,0,1-3-3c-1.82-1.82-4.18-3.68-2.09-6.55a26,26,0,0,1,2.76-2.76c1.65-1.65,3.09-3.67,5.66-2.78,1.62,0.56,2.68,2,3.88,3.22,1.79,1.79,4.61,4,2.31,6.77-1.21,1.48.9,3.62,2.12,2.12,4.4-5.39-1-10.27-5.08-13.77-5.27-4.54-10.36,1.12-13.77,5.08-4.56,5.3,1.11,10.36,5.08,13.77,5.5,4.73,10.06-1.36,13.77-5.08A1.5,1.5,0,0,0,360.7,371.94Z" transform="translate(-90.89 -136.49)"/><path class="cls-11" d="M377.83,354.81c-2.3,2.3-5.92,7.67-9.53,5.08a27.23,27.23,0,0,1-3-3c-1.82-1.82-4.18-3.68-2.09-6.55a26,26,0,0,1,2.76-2.76c1.65-1.65,3.09-3.67,5.66-2.78,1.62,0.56,2.68,2,3.88,3.22,1.79,1.79,4.61,4,2.31,6.77-1.21,1.48.9,3.62,2.12,2.12,4.4-5.39-1-10.27-5.08-13.77-5.27-4.54-10.36,1.12-13.77,5.08-4.56,5.3,1.11,10.36,5.08,13.77,5.5,4.73,10.06-1.36,13.77-5.08A1.5,1.5,0,0,0,377.83,354.81Z" transform="translate(-90.89 -136.49)"/><path class="cls-11" d="M395.58,337.06c-2.27,2.27-6,7.76-9.53,5.22a27.35,27.35,0,0,1-3.07-3.07c-1.8-1.8-4.19-3.63-2.15-6.46a25.9,25.9,0,0,1,2.84-2.84c1.62-1.62,3.09-3.7,5.61-2.83,1.63,0.57,2.72,2.09,3.92,3.29,1.76,1.76,4.64,3.93,2.38,6.69-1.21,1.48.9,3.62,2.12,2.12,4.39-5.37-1.17-10.3-5.22-13.77-5.26-4.51-10.39,1.27-13.77,5.22-4.54,5.3,1.26,10.38,5.22,13.77,5.5,4.71,10.08-1.52,13.77-5.22A1.5,1.5,0,0,0,395.58,337.06Z" transform="translate(-90.89 -136.49)"/><path class="cls-11" d="M414.3,318.34l-3.23,3.23c-1,1-2.38,3.05-3.7,3.7-2.57,1.27-4.61-2-6.09-3.44s-3.44-2.67-3.44-4.77,2-3.3,3.44-4.77,2.67-3.44,4.77-3.44,3.31,2,4.77,3.44,5.08,3.82,3.26,6.34c-1.13,1.57,1.47,3.07,2.59,1.51,2.27-3.15.59-5.66-1.74-8-1.86-1.86-3.66-4.17-5.78-5.71-2.86-2.08-5.37-.88-7.58,1.33a76.13,76.13,0,0,0-6,6c-2.25,2.84-1,5.48,1.21,7.73,1.94,1.94,3.79,4.15,5.89,5.89,5.23,4.34,10.48-3.7,13.77-7A1.5,1.5,0,0,0,414.3,318.34Z" transform="translate(-90.89 -136.49)"/><path class="cls-11" d="M432.5,300.48l-3.23,3.23c-1,1-2.38,3.05-3.7,3.7-2.57,1.27-4.61-2-6.09-3.44S416,301.3,416,299.2s2-3.3,3.44-4.77,2.67-3.44,4.77-3.44,3.31,2,4.77,3.44,5.08,3.82,3.26,6.34c-1.13,1.57,1.47,3.07,2.59,1.51,2.27-3.15.59-5.66-1.74-8-1.86-1.86-3.66-4.17-5.78-5.71-2.86-2.08-5.37-.88-7.58,1.33a76.13,76.13,0,0,0-6,6c-2.25,2.84-1,5.48,1.21,7.73,1.94,1.94,3.79,4.15,5.89,5.89,5.23,4.34,10.48-3.7,13.77-7A1.5,1.5,0,0,0,432.5,300.48Z" transform="translate(-90.89 -136.49)"/><path class="cls-11" d="M239.43,458.76L236.2,462c-1,1-2.38,3-3.7,3.7-2.58,1.28-4.61-2-6.09-3.44s-3.44-2.67-3.44-4.77,2-3.3,3.44-4.77,2.67-3.44,4.77-3.44,3.3,2,4.77,3.44,5.08,3.82,3.25,6.35c-1.13,1.57,1.47,3.07,2.59,1.51,2.28-3.15.59-5.67-1.74-8-1.85-1.85-3.65-4.16-5.77-5.7-2.86-2.08-5.38-.88-7.59,1.32a76.11,76.11,0,0,0-6,6c-2.25,2.84-1,5.48,1.21,7.74,1.93,1.93,3.78,4.14,5.88,5.88,5.23,4.34,10.48-3.68,13.77-7A1.5,1.5,0,0,0,239.43,458.76Z" transform="translate(-90.89 -136.49)"/><path class="cls-11" d="M256.94,441.25l-3.32,3.32c-1,1-3.07,3.92-4.77,3.92s-3.73-2.88-4.77-3.92c-1.37-1.37-4.34-3.4-3.6-5.51,0.58-1.65,2.64-3.07,3.84-4.27s3.2-4.08,5.26-3.35c1.66,0.59,3,2.63,4.27,3.84,1.68,1.68,4.81,3.69,2.84,6.27-1.17,1.53,1.43,3,2.59,1.51,2.19-2.87,1-5.6-1.27-7.87-1.91-1.91-3.74-4.22-5.91-5.84-2.89-2.16-5.59-1-7.87,1.27a75.87,75.87,0,0,0-5.72,5.76c-4,5,3.19,10.63,6.76,13.62,5.3,4.44,10.39-3.26,13.77-6.64A1.5,1.5,0,0,0,256.94,441.25Z" transform="translate(-90.89 -136.49)"/><path class="cls-11" d="M274.24,424L271,427.18c-1,1-2.38,3-3.7,3.7-2.58,1.28-4.61-2-6.09-3.44s-3.44-2.67-3.44-4.77,2-3.3,3.44-4.77,2.67-3.44,4.77-3.44,3.3,2,4.77,3.44,5.08,3.82,3.25,6.35c-1.13,1.57,1.47,3.07,2.59,1.51,2.28-3.15.59-5.67-1.74-8-1.85-1.85-3.65-4.16-5.77-5.7-2.86-2.08-5.38-.88-7.59,1.32a76.11,76.11,0,0,0-6,6c-2.25,2.84-1,5.48,1.21,7.74,1.93,1.93,3.78,4.14,5.88,5.88,5.23,4.34,10.48-3.68,13.77-7A1.5,1.5,0,0,0,274.24,424Z" transform="translate(-90.89 -136.49)"/><path class="cls-11" d="M291.91,406.28l-3.23,3.23c-1,1-2.38,3-3.7,3.7-2.58,1.28-4.61-2-6.09-3.44s-3.44-2.67-3.44-4.77,2-3.3,3.44-4.77,2.67-3.44,4.77-3.44,3.3,2,4.77,3.44,5.08,3.82,3.25,6.35c-1.13,1.57,1.47,3.07,2.59,1.51,2.28-3.15.59-5.67-1.74-8-1.85-1.85-3.65-4.16-5.77-5.7-2.86-2.08-5.38-.88-7.59,1.32a76.11,76.11,0,0,0-6,6c-2.25,2.84-1,5.48,1.21,7.74,1.93,1.93,3.78,4.14,5.88,5.88,5.23,4.34,10.48-3.68,13.77-7A1.5,1.5,0,0,0,291.91,406.28Z" transform="translate(-90.89 -136.49)"/><path class="cls-11" d="M325.8,372.39c-2.3,2.3-5.92,7.67-9.53,5.08a27.23,27.23,0,0,1-3-3c-1.82-1.82-4.18-3.68-2.09-6.55a26,26,0,0,1,2.76-2.76c1.65-1.65,3.09-3.67,5.66-2.78,1.62,0.56,2.68,2,3.88,3.22,1.79,1.79,4.61,4,2.31,6.77-1.21,1.48.9,3.62,2.12,2.12,4.4-5.39-1-10.27-5.08-13.77-5.27-4.54-10.36,1.12-13.77,5.08-4.56,5.3,1.11,10.36,5.08,13.77,5.5,4.73,10.06-1.36,13.77-5.08A1.5,1.5,0,0,0,325.8,372.39Z" transform="translate(-90.89 -136.49)"/><path class="cls-11" d="M343.06,355.13c-2.45,2.45-5.76,7.31-9.53,4.25-2.67-2.17-7.09-6-4.25-9.53,2-2.4,5.56-6.58,8.8-4.7,3,1.75,7.82,6.63,5,10-1.24,1.46.87,3.59,2.12,2.12,4.52-5.31-.13-10.17-4.25-13.77-5.26-4.6-10.22.19-13.77,4.25-4.62,5.28.18,10.21,4.25,13.77,5.44,4.76,10-.43,13.77-4.25A1.5,1.5,0,0,0,343.06,355.13Z" transform="translate(-90.89 -136.49)"/><path class="cls-11" d="M360.61,337.58c-2.3,2.3-5.92,7.67-9.53,5.08a27.23,27.23,0,0,1-3-3c-1.82-1.82-4.18-3.68-2.09-6.55a26,26,0,0,1,2.76-2.76c1.65-1.65,3.09-3.67,5.66-2.78,1.62,0.56,2.68,2,3.88,3.22,1.79,1.79,4.61,4,2.31,6.77-1.21,1.48.9,3.62,2.12,2.12,4.4-5.39-1-10.27-5.08-13.77-5.27-4.54-10.36,1.12-13.77,5.08-4.56,5.3,1.11,10.36,5.08,13.77,5.5,4.73,10.06-1.36,13.77-5.08A1.5,1.5,0,0,0,360.61,337.58Z" transform="translate(-90.89 -136.49)"/><path class="cls-11" d="M378.36,319.83c-2.27,2.27-6,7.76-9.53,5.22a27.35,27.35,0,0,1-3.07-3.07c-1.8-1.8-4.19-3.63-2.15-6.46a25.9,25.9,0,0,1,2.84-2.84c1.62-1.62,3.09-3.7,5.61-2.83,1.63,0.57,2.72,2.09,3.92,3.29,1.76,1.76,4.64,3.93,2.38,6.69-1.21,1.48.9,3.62,2.12,2.12,4.39-5.37-1.17-10.3-5.22-13.77-5.26-4.51-10.39,1.27-13.77,5.22-4.54,5.3,1.26,10.38,5.22,13.77,5.5,4.71,10.08-1.52,13.77-5.22A1.5,1.5,0,0,0,378.36,319.83Z" transform="translate(-90.89 -136.49)"/><path class="cls-11" d="M397.08,301.11l-3.23,3.23c-1,1-2.38,3.05-3.7,3.7-2.57,1.27-4.61-2-6.09-3.44s-3.44-2.67-3.44-4.77,2-3.3,3.44-4.77,2.67-3.44,4.77-3.44,3.31,2,4.77,3.44,5.08,3.82,3.26,6.34c-1.13,1.57,1.47,3.07,2.59,1.51,2.27-3.15.59-5.66-1.74-8-1.86-1.86-3.66-4.17-5.78-5.71-2.86-2.08-5.37-.88-7.58,1.33a76.13,76.13,0,0,0-6,6c-2.25,2.84-1,5.48,1.21,7.73,1.94,1.94,3.79,4.15,5.89,5.89,5.23,4.34,10.48-3.7,13.77-7A1.5,1.5,0,0,0,397.08,301.11Z" transform="translate(-90.89 -136.49)"/><path class="cls-11" d="M415.28,283.25L412,286.48c-1,1-2.38,3.05-3.7,3.7-2.57,1.27-4.61-2-6.09-3.44s-3.44-2.67-3.44-4.77,2-3.3,3.44-4.77,2.67-3.44,4.77-3.44,3.31,2,4.77,3.44,5.08,3.82,3.26,6.34c-1.13,1.57,1.47,3.07,2.59,1.51,2.27-3.15.59-5.66-1.74-8-1.86-1.86-3.66-4.17-5.78-5.71-2.86-2.08-5.37-.88-7.58,1.33a76.13,76.13,0,0,0-6,6c-2.25,2.84-1,5.48,1.21,7.73,1.94,1.94,3.79,4.15,5.89,5.89,5.23,4.34,10.48-3.7,13.77-7A1.5,1.5,0,0,0,415.28,283.25Z" transform="translate(-90.89 -136.49)"/><path class="cls-11" d="M326.73,406.26l-3.23,3.23c-1,1-2.38,3-3.7,3.7-2.58,1.28-4.61-2-6.09-3.44s-3.44-2.67-3.44-4.77,2-3.3,3.44-4.77,2.67-3.44,4.77-3.44,3.3,2,4.77,3.44,5.08,3.82,3.25,6.35c-1.13,1.57,1.47,3.07,2.59,1.51,2.28-3.15.59-5.67-1.74-8-1.85-1.85-3.65-4.16-5.77-5.7-2.86-2.08-5.38-.88-7.59,1.32a76.11,76.11,0,0,0-6,6c-2.25,2.84-1,5.48,1.21,7.74,1.93,1.93,3.78,4.14,5.88,5.88,5.23,4.34,10.48-3.68,13.77-7A1.5,1.5,0,0,0,326.73,406.26Z" transform="translate(-90.89 -136.49)"/><path class="cls-11" d="M309.51,389c-2.07,2.07-5.29,6.92-8.25,6.92-2.12,0-3.3-2-4.77-3.44s-4.73-3.53-3.44-6.09c0.64-1.27,2.55-2.55,3.55-3.55s3-3.74,4.65-3.74,3.81,2.9,4.9,4c1.41,1.41,4.91,3.72,3.11,6.21-1.13,1.57,1.47,3.07,2.59,1.51,2.25-3.11.64-5.62-1.68-7.94a57.43,57.43,0,0,0-5.56-5.49c-5-3.79-10.78,3.27-13.75,6.93-2.17,2.67-1.43,5.23.73,7.53a73,73,0,0,0,6.25,6.25c5.24,4.34,10.46-3.66,13.77-7A1.5,1.5,0,0,0,309.51,389Z" transform="translate(-90.89 -136.49)"/><path class="cls-11" d="M221.75,441.09l-3.23,3.23c-1,1-2.38,3-3.7,3.7-2.58,1.28-4.61-2-6.09-3.44s-3.44-2.67-3.44-4.77,2-3.3,3.44-4.77,2.67-3.44,4.77-3.44,3.3,2,4.77,3.44,5.08,3.82,3.25,6.35c-1.13,1.57,1.47,3.07,2.59,1.51,2.28-3.15.59-5.67-1.74-8-1.85-1.85-3.65-4.16-5.77-5.7-2.86-2.08-5.38-.88-7.59,1.32a76.11,76.11,0,0,0-6,6c-2.25,2.84-1,5.48,1.21,7.74,1.93,1.93,3.78,4.14,5.88,5.88,5.23,4.34,10.48-3.68,13.77-7A1.5,1.5,0,0,0,221.75,441.09Z" transform="translate(-90.89 -136.49)"/><path class="cls-11" d="M239.43,423.41l-3.23,3.23c-1,1-2.38,3-3.7,3.7-2.58,1.28-4.61-2-6.09-3.44s-3.44-2.67-3.44-4.77,2-3.3,3.44-4.77,2.67-3.44,4.77-3.44,3.3,2,4.77,3.44,5.08,3.82,3.25,6.35c-1.13,1.57,1.47,3.07,2.59,1.51,2.28-3.15.59-5.67-1.74-8-1.85-1.85-3.65-4.16-5.77-5.7-2.86-2.08-5.38-.88-7.59,1.32a76.11,76.11,0,0,0-6,6c-2.25,2.84-1,5.48,1.21,7.74,1.93,1.93,3.78,4.14,5.88,5.88,5.23,4.34,10.48-3.68,13.77-7A1.5,1.5,0,0,0,239.43,423.41Z" transform="translate(-90.89 -136.49)"/><path class="cls-11" d="M256.56,406.28l-3.23,3.23c-1,1-2.38,3-3.7,3.7-2.58,1.28-4.61-2-6.09-3.44s-3.44-2.67-3.44-4.77,2-3.3,3.44-4.77,2.67-3.44,4.77-3.44,3.3,2,4.77,3.44,5.08,3.82,3.25,6.35c-1.13,1.57,1.47,3.07,2.59,1.51,2.28-3.15.59-5.67-1.74-8-1.85-1.85-3.65-4.16-5.77-5.7-2.86-2.08-5.38-.88-7.59,1.32a76.11,76.11,0,0,0-6,6c-2.25,2.84-1,5.48,1.21,7.74,1.93,1.93,3.78,4.14,5.88,5.88,5.23,4.34,10.48-3.68,13.77-7A1.5,1.5,0,0,0,256.56,406.28Z" transform="translate(-90.89 -136.49)"/><path class="cls-11" d="M274.24,388.6L271,391.83c-1,1-2.38,3-3.7,3.7-2.58,1.28-4.61-2-6.09-3.44s-3.44-2.67-3.44-4.77,2-3.3,3.44-4.77,2.67-3.44,4.77-3.44,3.3,2,4.77,3.44,5.08,3.82,3.25,6.35c-1.13,1.57,1.47,3.07,2.59,1.51,2.28-3.15.59-5.67-1.74-8-1.85-1.85-3.65-4.16-5.77-5.7-2.86-2.08-5.38-.88-7.59,1.32a76.11,76.11,0,0,0-6,6c-2.25,2.84-1,5.48,1.21,7.74,1.93,1.93,3.78,4.14,5.88,5.88,5.23,4.34,10.48-3.68,13.77-7A1.5,1.5,0,0,0,274.24,388.6Z" transform="translate(-90.89 -136.49)"/><path class="cls-11" d="M308.12,354.71c-2.3,2.3-5.92,7.67-9.53,5.08a27.23,27.23,0,0,1-3-3c-1.82-1.82-4.18-3.68-2.09-6.55a26,26,0,0,1,2.76-2.76c1.65-1.65,3.09-3.67,5.66-2.78,1.62,0.56,2.68,2,3.88,3.22,1.79,1.79,4.61,4,2.31,6.77-1.21,1.48.9,3.62,2.12,2.12,4.4-5.39-1-10.27-5.08-13.77-5.27-4.54-10.36,1.12-13.77,5.08-4.56,5.3,1.11,10.36,5.08,13.77,5.5,4.73,10.06-1.36,13.77-5.08A1.5,1.5,0,0,0,308.12,354.71Z" transform="translate(-90.89 -136.49)"/><path class="cls-11" d="M325.8,337c-2.3,2.3-5.92,7.67-9.53,5.08a27.23,27.23,0,0,1-3-3c-1.82-1.82-4.18-3.68-2.09-6.55a26,26,0,0,1,2.76-2.76c1.65-1.65,3.09-3.67,5.66-2.78,1.62,0.56,2.68,2,3.88,3.22,1.79,1.79,4.61,4,2.31,6.77-1.21,1.48.9,3.62,2.12,2.12,4.4-5.39-1-10.27-5.08-13.77-5.27-4.54-10.36,1.12-13.77,5.08-4.56,5.3,1.11,10.36,5.08,13.77,5.5,4.73,10.06-1.36,13.77-5.08A1.5,1.5,0,0,0,325.8,337Z" transform="translate(-90.89 -136.49)"/><path class="cls-11" d="M342.93,319.91c-2.3,2.3-5.92,7.67-9.53,5.08a27.23,27.23,0,0,1-3-3c-1.82-1.82-4.18-3.68-2.09-6.55a26,26,0,0,1,2.76-2.76c1.65-1.65,3.09-3.67,5.66-2.78,1.62,0.56,2.68,2,3.88,3.22,1.79,1.79,4.61,4,2.31,6.77-1.21,1.48.9,3.62,2.12,2.12,4.4-5.39-1-10.27-5.08-13.77-5.27-4.54-10.36,1.12-13.77,5.08-4.56,5.3,1.11,10.36,5.08,13.77,5.5,4.73,10.06-1.36,13.77-5.08A1.5,1.5,0,0,0,342.93,319.91Z" transform="translate(-90.89 -136.49)"/><path class="cls-11" d="M360.68,302.16c-2.27,2.27-6,7.76-9.53,5.22a27.35,27.35,0,0,1-3.07-3.07c-1.8-1.8-4.19-3.63-2.15-6.46a25.9,25.9,0,0,1,2.84-2.84c1.62-1.62,3.09-3.7,5.61-2.83,1.63,0.57,2.72,2.09,3.92,3.29,1.76,1.76,4.64,3.93,2.38,6.69-1.21,1.48.9,3.62,2.12,2.12,4.39-5.37-1.17-10.3-5.22-13.77-5.26-4.51-10.39,1.27-13.77,5.22-4.54,5.3,1.26,10.38,5.22,13.77,5.5,4.71,10.08-1.52,13.77-5.22A1.5,1.5,0,0,0,360.68,302.16Z" transform="translate(-90.89 -136.49)"/><path class="cls-11" d="M379.4,283.44l-3.23,3.23c-1,1-2.38,3.05-3.7,3.7-2.57,1.27-4.61-2-6.09-3.44s-3.44-2.67-3.44-4.77,2-3.3,3.44-4.77S369,274,371.14,274s3.31,2,4.77,3.44,5.08,3.82,3.26,6.34c-1.13,1.57,1.47,3.07,2.59,1.51,2.27-3.15.59-5.66-1.74-8-1.86-1.86-3.66-4.17-5.78-5.71-2.86-2.08-5.37-.88-7.58,1.33a76.13,76.13,0,0,0-6,6c-2.25,2.84-1,5.48,1.21,7.73,1.94,1.94,3.79,4.15,5.89,5.89,5.23,4.34,10.48-3.7,13.77-7A1.5,1.5,0,0,0,379.4,283.44Z" transform="translate(-90.89 -136.49)"/><path class="cls-11" d="M397.6,265.57l-3.23,3.23c-1,1-2.38,3.05-3.7,3.7-2.57,1.27-4.61-2-6.09-3.44s-3.44-2.67-3.44-4.77,2-3.3,3.44-4.77,2.67-3.44,4.77-3.44,3.31,2,4.77,3.44,5.08,3.82,3.26,6.34c-1.13,1.57,1.47,3.07,2.59,1.51,2.27-3.15.59-5.66-1.74-8-1.86-1.86-3.66-4.17-5.78-5.71-2.86-2.08-5.37-.88-7.58,1.33a76.13,76.13,0,0,0-6,6c-2.25,2.84-1,5.48,1.21,7.73,1.94,1.94,3.79,4.15,5.89,5.89,5.23,4.34,10.48-3.7,13.77-7A1.5,1.5,0,0,0,397.6,265.57Z" transform="translate(-90.89 -136.49)"/><path class="cls-11" d="M291.83,371.36l-3.23,3.23c-1,1-2.38,3-3.7,3.7-2.58,1.28-4.61-2-6.09-3.44s-3.44-2.67-3.44-4.77,2-3.3,3.44-4.77,2.67-3.44,4.77-3.44,3.3,2,4.77,3.44,5.08,3.82,3.25,6.35c-1.13,1.57,1.47,3.07,2.59,1.51,2.28-3.15.59-5.67-1.74-8-1.85-1.85-3.65-4.16-5.77-5.7-2.86-2.08-5.38-.88-7.59,1.32a76.11,76.11,0,0,0-6,6c-2.25,2.84-1,5.48,1.21,7.74,1.93,1.93,3.78,4.14,5.88,5.88,5.23,4.34,10.48-3.68,13.77-7A1.5,1.5,0,0,0,291.83,371.36Z" transform="translate(-90.89 -136.49)"/><path class="cls-11" d="M425,416.7L393.1,448.62,372.7,469c-5.18,5.18-11,12.83-19.36,8.72-3.86-1.89-7.09-6.25-10.06-9.22-3.85-3.85-8.54-7.46-8.25-13.53s7.26-11.24,11.28-15.27l42.31-42.31c5.35-5.35,11.61-14.26,20.28-11.07,4.73,1.74,8.66,7.16,12.12,10.62,1.31,1.31,2.7,2.57,3.94,3.94a11.39,11.39,0,0,1,.05,15.8c-1.29,1.43.83,3.56,2.12,2.12,4.73-5.27,5.61-12.87,1.16-18.66-2.83-3.68-6.63-6.8-9.9-10.08-3.66-3.66-7.13-7.21-12.69-7.47-4.42-.21-8.16,1.74-11.25,4.74-14.48,14-28.54,28.54-42.81,42.81-5.06,5.06-10.29,10-15.21,15.21-3.54,3.75-5.33,8.75-4,13.87,1.33,4.95,5.55,8.27,9,11.74s6.93,8.06,11.53,9.87c5.41,2.14,11.09.65,15.27-3.2,4.9-4.51,9.46-9.46,14.16-14.16l44.67-44.67A1.5,1.5,0,0,0,425,416.7Z" transform="translate(-90.89 -136.49)"/><path class="cls-11" d="M762.56,473.16H607.75l1.5,1.5V273.27l-1.5,1.5H762.56l-1.5-1.5V474.66a1.5,1.5,0,0,0,3,0V273.27a1.52,1.52,0,0,0-1.5-1.5H607.75a1.52,1.52,0,0,0-1.5,1.5V474.66a1.52,1.52,0,0,0,1.5,1.5H762.56A1.5,1.5,0,0,0,762.56,473.16Z" transform="translate(-90.89 -136.49)"/><path class="cls-9" d="M625,301.5H727a1.5,1.5,0,0,0,0-3H625a1.5,1.5,0,0,0,0,3h0Z" transform="translate(-90.89 -136.49)"/><path class="cls-11" d="M625,319.5h60a1.5,1.5,0,0,0,0-3H625a1.5,1.5,0,0,0,0,3h0Z" transform="translate(-90.89 -136.49)"/><path class="cls-9" d="M625,340.5h80a1.5,1.5,0,0,0,0-3H625a1.5,1.5,0,0,0,0,3h0Z" transform="translate(-90.89 -136.49)"/><path class="cls-11" d="M625,363.5h51a1.5,1.5,0,0,0,0-3H625a1.5,1.5,0,0,0,0,3h0Z" transform="translate(-90.89 -136.49)"/><path class="cls-9" d="M679.78,415.53c-0.36,14.54-11.85,26.61-26.64,26.64a26.64,26.64,0,0,1,0-53.28c14.79,0,26.28,12.13,26.64,26.64,0,1.93,3,1.93,3,0A29.64,29.64,0,0,0,630,397c-16.78,21,2,52.31,28.37,47.68,14.2-2.5,24.06-15,24.41-29.17C682.83,413.6,679.83,413.6,679.78,415.53Z" transform="translate(-90.89 -136.49)"/><path class="cls-9" d="M625,417.5h28a1.52,1.52,0,0,0,1.5-1.5l0.14-28.61a1.5,1.5,0,0,0-3,0L651.5,416l1.5-1.5H625a1.5,1.5,0,0,0,0,3h0Z" transform="translate(-90.89 -136.49)"/><path class="cls-9" d="M654.06,417.06l20-20.4a1.5,1.5,0,0,0-2.12-2.12l-20,20.4a1.5,1.5,0,0,0,2.12,2.12h0Z" transform="translate(-90.89 -136.49)"/><path class="cls-9" d="M501.19,503.95L475.83,529.3l2.36,0.3c-6.55-11.35-13-22.76-19.49-34.15-1.31-2.3-2.75-4.28-2.16-7.1,1.13-5.39,6.54-4.7,10.13-2.58l18.66,11,16.15,9.52a1.5,1.5,0,0,0,1.51-2.59c-12-7.07-23.84-14.58-36.06-21.26-7.44-4.07-16.53,2.54-12.81,10.95,2.56,5.77,6.34,11.23,9.46,16.71,4,7,8,14,12,21a1.52,1.52,0,0,0,2.36.3l25.36-25.36A1.5,1.5,0,0,0,501.19,503.95Z" transform="translate(-90.89 -136.49)"/><path class="cls-9" d="M518.5,656h22a1.52,1.52,0,0,0,1.5-1.5c0-36.74,1.86-74.13-4.94-110.4a1.51,1.51,0,0,0-1.45-1.1h-45a1.52,1.52,0,0,0-1.45,1.1c-4.45,23.08-6.12,46.1-6.12,69.54V654.5a1.52,1.52,0,0,0,1.5,1.5h22a1.5,1.5,0,0,0,0-3h-22l1.5,1.5v-40c0-23.46,1.56-46.48,6-69.59l-1.45,1.1h45l-1.45-1.1c6.75,36,4.84,73.15,4.84,109.6l1.5-1.5h-22a1.5,1.5,0,0,0,0,3h0Z" transform="translate(-90.89 -136.49)"/><path class="cls-9" d="M483.74,652.25l-16.42,10.57c-1.94,1.25-4.38,3.58-6.6,4.25-7.31,2.22-5.74-6.88-5.72-10a91.05,91.05,0,0,1,9.69-40.85c5.32-10.45,12.74-19,21-27.21a1.5,1.5,0,0,0-2.12-2.12c-16,16-27.48,34.34-30.64,57.09a109.69,109.69,0,0,0-.9,15.13c0,3.11-.59,6.87,1.6,9.42,4.38,5.1,10,.28,14.13-2.35l17.53-11.28c1.62-1,.12-3.64-1.51-2.59h0Z" transform="translate(-90.89 -136.49)"/><path class="cls-9" d="M539.74,654.6L555,664.53c3.85,2.51,9.48,8,14.44,5.44,5.84-3,3.73-14.42,3.35-19.7a93.11,93.11,0,0,0-9.87-35.61c-5.43-10.67-13-19.38-21.39-27.77a1.5,1.5,0,0,0-2.12,2.12c8.21,8.21,15.6,16.74,20.92,27.16A90.82,90.82,0,0,1,570,657.23c0,3.54,1.12,12.76-5.63,9.84-2.33-1-4.59-3-6.71-4.37L541.26,652c-1.62-1.06-3.13,1.54-1.51,2.59h0Z" transform="translate(-90.89 -136.49)"/><path class="cls-9" d="M505,594.5v80a1.52,1.52,0,0,0,1.5,1.5h12a1.52,1.52,0,0,0,1.5-1.5v-38c0-13.79,1-28,0-41.73-0.7-9.8-14-10.08-15-.26-0.19,1.92,2.81,1.91,3,0,0.63-6.23,8.19-5.52,9,.15,0.08,0.56,0,1.16,0,1.72,0.15,2.75,0,5.55,0,8.31V674.5l1.5-1.5h-12l1.5,1.5v-80A1.5,1.5,0,0,0,505,594.5Z" transform="translate(-90.89 -136.49)"/><path class="cls-9" d="M491,655v28.5a1.52,1.52,0,0,0,1.5,1.5h41a1.52,1.52,0,0,0,1.5-1.5V655a1.5,1.5,0,0,0-3,0v28.5l1.5-1.5h-41l1.5,1.5V655a1.5,1.5,0,0,0-3,0h0Z" transform="translate(-90.89 -136.49)"/><path class="cls-9" d="M501,684c0,3.39-.46,7.11,1.33,10.17,2.35,4,6.39,4.83,10.67,4.83,4.11,0,7.93-.68,10.37-4.39,2.08-3.17,1.63-7,1.63-10.61a1.5,1.5,0,0,0-3,0c0,1.74.12,3.51,0,5.24-0.36,5.29-4.47,6.76-9,6.76-4.13,0-8.12-1.06-8.88-5.86A39.43,39.43,0,0,1,504,684a1.5,1.5,0,0,0-3,0h0Z" transform="translate(-90.89 -136.49)"/><path class="cls-9" d="M536,543H491a1.5,1.5,0,0,0,0,3h45a1.5,1.5,0,0,0,0-3h0Z" transform="translate(-90.89 -136.49)"/><path class="cls-9" d="M487,569.5h52a1.5,1.5,0,0,0,0-3H487a1.5,1.5,0,0,0,0,3h0Z" transform="translate(-90.89 -136.49)"/><path class="cls-9" d="M456,485.5l32.9,32.9a1.5,1.5,0,0,0,2.12-2.12l-32.9-32.9A1.5,1.5,0,0,0,456,485.5h0Z" transform="translate(-90.89 -136.49)"/><path class="cls-11" d="M634.17,590.53l10.56-21,7.62-15.16c1.41-2.81,3.62-5.92,4.5-8.95,0.81-2.79-1.09-5.75-1.93-8.51-3.14-10.35,1.08-21.6,11.1-26.31a60.2,60.2,0,0,1,7.18-2.49c1.6-.52,4.89-2.37,4.84-0.41s-2.48,4.93-3.31,6.58a18.6,18.6,0,0,1-1.56,3.11c-1.47,1.87-2.46,1.16-4.17,1.26-4.42.25-6.08,5.12-7.6,8.81-2.75,6.66,2.94,13.2,8.61,16.05,1.72,0.86,3.24-1.72,1.51-2.59-3.92-2-8-5.65-7.62-10.38a16.28,16.28,0,0,1,3.18-7.72c1.93-2.15,4.69.26,7.1-1.7,1.51-1.22,2.31-3.67,3.14-5.32,1.26-2.51,5.93-8.53,3.05-11.28s-9.54,1.15-12.4,2.12a25,25,0,0,0-15.36,13.95c-3.07,7.34-1.57,14.18.83,21.36a17,17,0,0,1,.84,2.51c-0.13-.8.36-1.35-0.08-0.47-0.66,1.32-1.33,2.64-2,4L645,562.26,631.58,589c-0.86,1.72,1.72,3.24,2.59,1.51h0Z" transform="translate(-90.89 -136.49)"/><path class="cls-11" d="M654.94,601l11.23-22.34L674,563c1.15-2.29,2.14-5.64,3.82-7.6-1.14,1.33.64,0.17,1.77-.2s2.2-.71,3.3-1.08a28.28,28.28,0,0,0,8.39-4.21,24.52,24.52,0,0,0,9.4-21.83,46.13,46.13,0,0,0-4.32-14.61c-2.5-4.8-5.89-1-7.44,2.05-2,3.94-6.68,9.69-3.62,14,1.28,1.81,2.08,1.64,1.3,4a25.06,25.06,0,0,1-2.13,4.23c-3.11,5.28-9.55,4.88-14.52,2.38-1.72-.86-3.24,1.72-1.51,2.59,4.9,2.46,12.85,3.76,17-.86,2-2.2,5.4-8,4.78-11-0.51-2.48-3.36-3.1-2.64-6,0.57-2.31,2.45-4.88,3.52-7,0.27-.54.9-2.51,1.45-2.89,1.11-.75.53-0.48,1.23,0.3,1.31,1.44,1.91,5.55,2.53,7.42,3.14,9.56.61,20-8.08,25.74a34.68,34.68,0,0,1-8.57,3.61c-1.44.47-3.34,0.73-4.42,1.84-1.41,1.46-2.27,4.52-3.17,6.31l-7.17,14.26-12.56,25c-0.86,1.72,1.72,3.24,2.59,1.51h0Z" transform="translate(-90.89 -136.49)"/><path class="cls-11" d="M666.83,570.64l-10.56,21-7.62,15.16c-1.41,2.81-3.62,5.92-4.5,8.95-0.81,2.79,1.09,5.75,1.93,8.51,3.14,10.35-1.08,21.6-11.1,26.31a60.2,60.2,0,0,1-7.18,2.49c-1.6.52-4.89,2.37-4.84,0.41s2.48-4.93,3.31-6.58a18.6,18.6,0,0,1,1.56-3.11c1.47-1.87,2.46-1.16,4.17-1.26,4.42-.25,6.08-5.12,7.6-8.81,2.75-6.66-2.94-13.2-8.61-16.05-1.72-.86-3.24,1.72-1.51,2.59,3.92,2,8,5.65,7.62,10.38a16.28,16.28,0,0,1-3.18,7.72c-1.93,2.15-4.69-.26-7.1,1.7-1.51,1.22-2.31,3.67-3.14,5.32-1.26,2.51-5.93,8.53-3.05,11.28s9.54-1.15,12.4-2.12a25,25,0,0,0,15.36-13.95c3.07-7.34,1.57-14.18-.83-21.36a17,17,0,0,1-.84-2.51c0.13,0.8-.36,1.35.08,0.47,0.66-1.32,1.33-2.64,2-4L656,598.91l13.45-26.76c0.86-1.72-1.72-3.24-2.59-1.51h0Z" transform="translate(-90.89 -136.49)"/><path class="cls-11" d="M646.06,560.2l-11.23,22.34L627,598.15c-1.15,2.29-2.14,5.64-3.82,7.6,1.14-1.33-.64-0.17-1.77.2s-2.2.71-3.3,1.08a28.28,28.28,0,0,0-8.39,4.21,24.52,24.52,0,0,0-9.4,21.83,46.13,46.13,0,0,0,4.32,14.61c2.5,4.8,5.89,1,7.44-2.05,2-3.94,6.68-9.69,3.62-14-1.28-1.81-2.08-1.64-1.3-4a25.06,25.06,0,0,1,2.13-4.23c3.11-5.28,9.55-4.88,14.52-2.38,1.72,0.86,3.24-1.72,1.51-2.59-4.9-2.46-12.85-3.76-17,.86-2,2.2-5.4,8-4.78,11,0.51,2.48,3.36,3.1,2.64,6-0.57,2.31-2.45,4.88-3.52,7-0.27.54-.9,2.51-1.45,2.89-1.11.75-.53,0.48-1.23-0.3-1.31-1.44-1.91-5.55-2.53-7.42-3.14-9.56-.61-20,8.08-25.74a34.68,34.68,0,0,1,8.57-3.61c1.44-.47,3.34-0.73,4.42-1.84,1.41-1.46,2.27-4.52,3.17-6.31l7.17-14.26,12.56-25c0.86-1.72-1.72-3.24-2.59-1.51h0Z" transform="translate(-90.89 -136.49)"/><path class="cls-9" d="M821.9,564.8l-27.49-13.93,0.54,2.05,31.76-62.7,50.68-100,11.71-23.11-2.05.54,27.49,13.93L914,379.48l-31.76,62.7-50.68,100-11.71,23.11c-0.87,1.72,1.72,3.24,2.59,1.51l31.76-62.7,50.68-100L916.59,381a1.52,1.52,0,0,0-.54-2.05L888.57,365a1.52,1.52,0,0,0-2.05.54l-31.76,62.7-50.68,100-11.71,23.11a1.52,1.52,0,0,0,.54,2.05l27.49,13.93C822.11,568.27,823.63,565.68,821.9,564.8Z" transform="translate(-90.89 -136.49)"/><path class="cls-9" d="M879.76,381.83l11.59,5.87c1.72,0.87,3.24-1.72,1.51-2.59l-11.59-5.87c-1.72-.87-3.24,1.72-1.51,2.59h0Z" transform="translate(-90.89 -136.49)"/><path class="cls-9" d="M873,395.22l6.69,3.39c1.72,0.87,3.24-1.72,1.51-2.59l-6.69-3.39c-1.72-.87-3.24,1.72-1.51,2.59h0Z" transform="translate(-90.89 -136.49)"/><path class="cls-9" d="M866.66,407.7l11.59,5.87c1.72,0.87,3.24-1.72,1.51-2.59l-11.59-5.87c-1.72-.87-3.24,1.72-1.51,2.59h0Z" transform="translate(-90.89 -136.49)"/><path class="cls-9" d="M859.88,421.09l6.69,3.39c1.72,0.87,3.24-1.72,1.51-2.59l-6.69-3.39c-1.72-.87-3.24,1.72-1.51,2.59h0Z" transform="translate(-90.89 -136.49)"/><path class="cls-9" d="M853.55,433.57l11.59,5.87c1.72,0.87,3.24-1.72,1.51-2.59L855.07,431c-1.72-.87-3.24,1.72-1.51,2.59h0Z" transform="translate(-90.89 -136.49)"/><path class="cls-9" d="M846.77,447l6.69,3.39c1.72,0.87,3.24-1.72,1.51-2.59l-6.69-3.39c-1.72-.87-3.24,1.72-1.51,2.59h0Z" transform="translate(-90.89 -136.49)"/><path class="cls-9" d="M840.45,459.44L852,465.31c1.72,0.87,3.24-1.72,1.51-2.59L842,456.85c-1.72-.87-3.24,1.72-1.51,2.59h0Z" transform="translate(-90.89 -136.49)"/><path class="cls-9" d="M833.67,472.83l6.69,3.39c1.72,0.87,3.24-1.72,1.51-2.59l-6.69-3.39c-1.72-.87-3.24,1.72-1.51,2.59h0Z" transform="translate(-90.89 -136.49)"/><path class="cls-9" d="M826.89,486.21l11.59,5.87c1.72,0.87,3.24-1.72,1.51-2.59l-11.59-5.87c-1.72-.87-3.24,1.72-1.51,2.59h0Z" transform="translate(-90.89 -136.49)"/><path class="cls-9" d="M820.11,499.59L826.8,503c1.72,0.87,3.24-1.72,1.51-2.59L821.63,497c-1.72-.87-3.24,1.72-1.51,2.59h0Z" transform="translate(-90.89 -136.49)"/><path class="cls-9" d="M813.79,512.08l11.59,5.87c1.72,0.87,3.24-1.72,1.51-2.59l-11.59-5.87c-1.72-.87-3.24,1.72-1.51,2.59h0Z" transform="translate(-90.89 -136.49)"/><path class="cls-9" d="M807,525.46l6.69,3.39c1.72,0.87,3.24-1.72,1.51-2.59l-6.69-3.39c-1.72-.87-3.24,1.72-1.51,2.59h0Z" transform="translate(-90.89 -136.49)"/><path class="cls-9" d="M800.68,537.95l11.59,5.87c1.72,0.87,3.24-1.72,1.51-2.59l-11.59-5.87c-1.72-.87-3.24,1.72-1.51,2.59h0Z" transform="translate(-90.89 -136.49)"/><path class="cls-11" d="M524.44,256.91H491.14c-4.55,0-13,1.46-15.49-3.56-1.12-2.3-.68-5.55-0.68-8V167.71c0-7.08-.68-14.55,0-21.61,0.74-7.67,8.28-6.48,13.76-6.48H509.3c4.89,0,10-.43,14.87,0,5.71,0.5,6.74,4.61,6.74,9.15v96.1c0,5.06.7,11.46-6.47,12-1.91.15-1.93,3.16,0,3,11.69-.94,9.47-13.76,9.47-22V152.66a53.33,53.33,0,0,0-.1-7.86c-1-6.46-6.5-8.18-12.11-8.18-13.07,0-26.17-.29-39.23,0-11.23.25-10.5,10.08-10.5,18.24v85.6c0,3.26-.21,6.6,0,9.86,0.44,6.83,5.52,9.58,11.72,9.58h40.76A1.5,1.5,0,0,0,524.44,256.91Z" transform="translate(-90.89 -136.49)"/><path class="cls-11" d="M506.77,245.73c-0.26,4.91-7.66,5-7.66,0s7.4-4.91,7.66,0c0.1,1.92,3.1,1.93,3,0a6.83,6.83,0,1,0-7.12,6.82,6.95,6.95,0,0,0,7.12-6.82C509.87,243.81,506.87,243.81,506.77,245.73Z" transform="translate(-90.89 -136.49)"/><path class="cls-11" d="M474.05,599.41a55.14,55.14,0,0,0-49.22-15C412,586.92,402,594.12,393,603.16q-23.21,23.21-46.42,46.42c-27.42,27.28-67.82,38-105.05,27-39.93-11.82-69.9-47.41-74.68-88.79a106.21,106.21,0,0,1,13-64.35c8-14,19.5-24.83,30.77-36.1a1.5,1.5,0,0,0-2.12-2.12c-9.39,9.39-19.25,18.45-26.75,29.5A108.46,108.46,0,0,0,325.12,669.79c10.83-6.16,19.81-14.34,28.55-23.08l27.49-27.49c7.95-7.95,15.77-17.5,25.14-23.87a52.17,52.17,0,0,1,65.63,6.19,1.5,1.5,0,0,0,2.12-2.12h0Z" transform="translate(-90.89 -136.49)"/><path class="cls-11" d="M532.44,684.56c33.19,33.19,88.39,33.59,122.14,1,5.1-4.92,9.86-10.24,15.21-14.91a82.5,82.5,0,0,1,33.06-17.51A83.43,83.43,0,0,1,772.43,666c9.41,6.77,16.38,15.6,27.31,20.23a54.78,54.78,0,0,0,32.57,3.13c16.32-3.44,26.8-14.44,38-25.66,9.92-9.92,20.42-19.54,29.64-30.15a146.46,146.46,0,0,0,1-191c-3.16-3.71-6.53-7.2-10-10.64a1.5,1.5,0,0,0-2.12,2.12c32.89,32.89,49.47,78.64,42.43,125a143.84,143.84,0,0,1-26.39,63.68c-8.57,11.62-19.25,21.49-29.42,31.66-9.66,9.66-19.39,21.83-31.83,28a51.41,51.41,0,0,1-51.38-3.55c-5.15-3.48-9.21-8.17-14-12.08-34-27.73-84-24.54-115.07,6.09-6.59,6.5-12.83,13.38-20.42,18.77a84.12,84.12,0,0,1-108.18-9.13,1.5,1.5,0,0,0-2.12,2.12h0Z" transform="translate(-90.89 -136.49)"/><path class="cls-11" d="M869,402.63c-5.72-5.72-11.35-11.41-18.2-15.81a71.18,71.18,0,0,0-89.19,9.92,1.5,1.5,0,0,0,2.12,2.12A69.14,69.14,0,0,1,820.57,379a68.43,68.43,0,0,1,29.28,10.8c6.38,4.2,11.62,9.59,17,15a1.5,1.5,0,0,0,2.12-2.12h0Z" transform="translate(-90.89 -136.49)"/><path class="cls-11" d="M503.95,270a1.5,1.5,0,0,0,0-3,1.5,1.5,0,0,0,0,3h0Z" transform="translate(-90.89 -136.49)"/><path class="cls-11" d="M606.79,473.47c-4.07,4.07-8,8.27-12.24,12.22A29.39,29.39,0,0,1,547,453.51c2.38-6,7-10,11-14.74a79.25,79.25,0,0,0,13.2-80.68c-3.89-9.77-9.87-19.74-17.73-26.86-4.88-4.42-10.28-8.37-15.38-12.53-7.35-6-15.46-11.27-22.2-18A36.77,36.77,0,0,1,507,287.2,43.29,43.29,0,0,1,504.79,277c-0.29-2.7.41-6.4-.4-8.93-0.59-1.83-3.49-1-2.89.8,0.85,2.64.09,6.64,0.45,9.52a47.08,47.08,0,0,0,1.63,7.9,37.5,37.5,0,0,0,6.06,11.81c6.42,8.41,15.78,14.13,23.92,20.7,5.27,4.25,10.5,8.55,15.75,12.83,8.55,7,15,17,19,27.22A77.19,77.19,0,0,1,558.82,433c-3.73,5-8.75,9.09-12.07,14.42A32.39,32.39,0,0,0,591.32,492c6.69-4.15,12.08-10.86,17.6-16.38a1.5,1.5,0,0,0-2.12-2.12h0Z" transform="translate(-90.89 -136.49)"/><path class="cls-9" d="M209.07,193.21l13,13a1.5,1.5,0,0,0,2.12-2.12l-13-13a1.5,1.5,0,0,0-2.12,2.12h0Z" transform="translate(-90.89 -136.49)"/><path class="cls-9" d="M222.06,191.09l-13,13a1.5,1.5,0,0,0,2.12,2.12l13-13a1.5,1.5,0,0,0-2.12-2.12h0Z" transform="translate(-90.89 -136.49)"/><path class="cls-9" d="M837.07,274.21l13,13a1.5,1.5,0,0,0,2.12-2.12l-13-13a1.5,1.5,0,0,0-2.12,2.12h0Z" transform="translate(-90.89 -136.49)"/><path class="cls-9" d="M850.06,272.09l-13,13a1.5,1.5,0,0,0,2.12,2.12l13-13a1.5,1.5,0,0,0-2.12-2.12h0Z" transform="translate(-90.89 -136.49)"/><path class="cls-11" d="M173.07,703.21l13,13a1.5,1.5,0,0,0,2.12-2.12l-13-13a1.5,1.5,0,0,0-2.12,2.12h0Z" transform="translate(-90.89 -136.49)"/><path class="cls-11" d="M186.06,701.09l-13,13a1.5,1.5,0,0,0,2.12,2.12l13-13a1.5,1.5,0,0,0-2.12-2.12h0Z" transform="translate(-90.89 -136.49)"/><path class="cls-11" d="M999.07,558.21l13,13a1.5,1.5,0,0,0,2.12-2.12l-13-13a1.5,1.5,0,0,0-2.12,2.12h0Z" transform="translate(-90.89 -136.49)"/><path class="cls-11" d="M1012.06,556.09l-13,13a1.5,1.5,0,0,0,2.12,2.12l13-13a1.5,1.5,0,0,0-2.12-2.12h0Z" transform="translate(-90.89 -136.49)"/><path class="cls-11" d="M114.4,358.42H99.73l1.5,1.5V345.24l-1.5,1.5H114.4l-1.5-1.5v14.68a1.5,1.5,0,0,0,3,0V345.24a1.52,1.52,0,0,0-1.5-1.5H99.73a1.52,1.52,0,0,0-1.5,1.5v14.68a1.52,1.52,0,0,0,1.5,1.5H114.4A1.5,1.5,0,0,0,114.4,358.42Z" transform="translate(-90.89 -136.49)"/><path class="cls-11" d="M1008.05,421.37H993.38l1.5,1.5V408.19l-1.5,1.5h14.68l-1.5-1.5v14.68a1.5,1.5,0,0,0,3,0V408.19a1.52,1.52,0,0,0-1.5-1.5H993.38a1.52,1.52,0,0,0-1.5,1.5v14.68a1.52,1.52,0,0,0,1.5,1.5h14.68A1.5,1.5,0,0,0,1008.05,421.37Z" transform="translate(-90.89 -136.49)"/><path class="cls-9" d="M430.95,728.32H416.27l1.5,1.5V715.14l-1.5,1.5h14.68l-1.5-1.5v14.68a1.5,1.5,0,0,0,3,0V715.14a1.52,1.52,0,0,0-1.5-1.5H416.27a1.52,1.52,0,0,0-1.5,1.5v14.68a1.52,1.52,0,0,0,1.5,1.5h14.68A1.5,1.5,0,0,0,430.95,728.32Z" transform="translate(-90.89 -136.49)"/><path class="cls-9" d="M99.73,573.84c-7.54,0-7.56-11.68,0-11.68s7.46,11.28,0,11.68c-1.92.1-1.93,3.1,0,3,4.8-.26,8.84-3.85,8.84-8.84a8.84,8.84,0,1,0-8.84,8.84A1.5,1.5,0,0,0,99.73,573.84Z" transform="translate(-90.89 -136.49)"/><path class="cls-11" d="M681.28,176c-7.54,0-7.56-11.68,0-11.68s7.46,11.28,0,11.68c-1.92.1-1.93,3.1,0,3,4.8-.26,8.84-3.85,8.84-8.84a8.84,8.84,0,1,0-8.84,8.84A1.5,1.5,0,0,0,681.28,176Z" transform="translate(-90.89 -136.49)"/><path class="cls-11" d="M880.52,735.66c-7.54,0-7.56-11.68,0-11.68s7.46,11.28,0,11.68c-1.92.1-1.93,3.1,0,3,4.8-.26,8.84-3.85,8.84-8.84a8.84,8.84,0,1,0-8.84,8.84A1.5,1.5,0,0,0,880.52,735.66Z" transform="translate(-90.89 -136.49)"/><path class="cls-11" d="M398.07,531.21l13,13a1.5,1.5,0,0,0,2.12-2.12l-13-13a1.5,1.5,0,0,0-2.12,2.12h0Z" transform="translate(-90.89 -136.49)"/><path class="cls-11" d="M411.06,529.09l-13,13a1.5,1.5,0,0,0,2.12,2.12l13-13a1.5,1.5,0,0,0-2.12-2.12h0Z" transform="translate(-90.89 -136.49)"/><path class="cls-9" d="M762.56,595.62c-7.54,0-7.56-11.68,0-11.68s7.46,11.28,0,11.68c-1.92.1-1.93,3.1,0,3,4.8-.26,8.84-3.85,8.84-8.84a8.84,8.84,0,1,0-8.84,8.84A1.5,1.5,0,0,0,762.56,595.62Z" transform="translate(-90.89 -136.49)"/><path class="cls-11" d="M497,260v8.5a1.52,1.52,0,0,0,1.5,1.5h10a1.52,1.52,0,0,0,1.5-1.5V259a1.5,1.5,0,0,0-3,0v9.5l1.5-1.5h-10l1.5,1.5V260a1.5,1.5,0,0,0-3,0h0Z" transform="translate(-90.89 -136.49)"/><path class="cls-11" d="M213.07,487.67c-2.84-2.84-7.38-5.86-3.95-10,2.21-2.69,5-5,7.5-7.5H214.5l11.61,11.61v-2.12c-2.63,2.63-8.86,11.47-13,8.06-1.48-1.21-3.62.9-2.12,2.12,6.81,5.57,12.89-3.66,17.29-8.06a1.52,1.52,0,0,0,0-2.12L216.62,468a1.52,1.52,0,0,0-2.12,0c-2.91,2.91-7.2,5.93-9.17,9.59-2.8,5.19,2.37,9,5.61,12.2A1.5,1.5,0,0,0,213.07,487.67Z" transform="translate(-90.89 -136.49)"/></svg>